<svg height="1024" viewBox="0 0 1024 1024" width="1024" xmlns="http://www.w3.org/2000/svg"><path d="m487.5 605c-1.6-5.4-2.8-9.8-3.5-12.9-2.9 11.3-11.2 39.1-24.9 83.5h50.2c-12.9-41.6-20.2-65.1-21.8-70.6z"/><path d="m966.9 482.6h-70.9v-146.6c0-44-25.5-105.5-56.6-136.6l-142.8-142.8c-31.1-31.1-92.6-56.6-136.6-56.6h-480c-44 0-80 36-80 80v864c0 44 36 80 80 80h736c44 0 80-36 80-80v-80.5h70.9c31.4 0 57.1-25.7 57.1-57.1v-266.7c0-31.4-25.7-57.1-57.1-57.1zm-326.8-390c4.4 3.1 8.2 6.2 11.3 9.3l142.8 142.8c3.1 3.1 6.2 6.9 9.3 11.3h-163.4zm191.9 390h-601.8c-31.4 0-57.1 25.7-57.1 57.1v266.8c0 31.4 25.7 57.1 57.1 57.1h601.8v80.4c0 8.7-7.3 16-16 16h-736c-8.7 0-16-7.3-16-16v-864c0-8.7 7.3-16 16-16h480c4.8 0 10.2.6 16 1.7v254.3h254.3c1.1 5.8 1.7 11.2 1.7 16zm-61.9 122.1-49.7 151h-37.4l-46.4-151.2h-1.2c1.7 30.8 2.5 51.3 2.5 61.6v89.6h-36.5v-192.7h55.6l45.6 147.4h.8l48.4-147.4h55.6v192.7h-38.1v-91.2c0-4.3.1-9.3.2-14.9s.7-20.6 1.8-44.8h-1.2zm-547.8-41.7h44.3l39.9 79.4 40.2-79.4h44l-63.9 117.7v75h-40.6v-73.7zm236.5-.8h50l68.3 193.5h-44l-14-45.9h-70.3l-14 45.9h-44zm516.2 193.5h-119v-192.7h40.9v159h78.1z"/></svg>